PathFileType	4	(X/Y/Z)	./resultDataOpenSim/trcMotMarkerGrf/sub06/qtm-15-06.trc
DataRate	CameraRate	NumFrames	NumMarkers	Units	OrigDataRate	OrigDataStartFrame	OrigNumFrames
250.000000	250.000000	10	24	m	250.000000	135	536
Frame#	Time	L.Toe.Tip			R.Toe.Tip			L.Ankle.Lat			R.Ankle.Lat			L.Ankle.Med			R.Ankle.Med			L.Heel			R.Heel			L.Knee.Lat			R.Knee.Lat			L.Knee.Med			R.Knee.Med			L.Thigh.Upper			R.Thigh.Upper			L.ASIS			R.ASIS			V.Sacral			L.Acromium			R.Acromium			C7			L.Elbow			R.Elbow			L.Wrist.Lat			R.Wrist.Lat
		X1	Y1	Z1	X2	Y2	Z2	X3	Y3	Z3	X4	Y4	Z4	X5	Y5	Z5	X6	Y6	Z6	X7	Y7	Z7	X8	Y8	Z8	X9	Y9	Z9	X10	Y10	Z10	X11	Y11	Z11	X12	Y12	Z12	X13	Y13	Z13	X14	Y14	Z14	X15	Y15	Z15	X16	Y16	Z16	X17	Y17	Z17	X18	Y18	Z18	X19	Y19	Z19	X20	Y20	Z20	X21	Y21	Z21	X22	Y22	Z22	X23	Y23	Z23	X24	Y24	Z24

135	0.536	-0.046148971	0.13279716	-0.04213041	-0.75344451	0.034892003	0.071023055	-0.17092014	0.10530558	-0.068144088	-0.88278486	0.075271904	0.081015136	-0.18005221	0.12101763	0.015581266	-0.85079385	0.093070995	-0.0023337922	-0.21879707	0.041817594	-0.020852024	-0.93509251	0.062000449	0.011385071	-0.32100335	0.43938051	-0.078191235	-0.69910623	0.4198475	0.13241505	-0.34492432	0.4298014	0.045341343	-0.71291951	0.42264548	9.9343215e-05	-0.50784659	0.77388408	-0.13944802	-0.59807683	0.76417686	0.19853126	-0.45066808	0.81665235	-0.080301182	-0.48326202	0.81435878	0.16653678	-0.6533453	0.89996759	0.025910383	-0.53275904	1.2983848	-0.1514879	-0.51546696	1.2915585	0.21028333	-0.60214389	1.3356046	0.032008905	-0.64420169	1.0062377	-0.20040779	-0.51686239	0.97915997	0.31642551	-0.55984845	0.78265818	-0.2555493	-0.27708115	0.91216686	0.2828984
136	0.54	-0.038724296	0.13171976	-0.040515378	-0.75333618	0.034878973	0.071002892	-0.16331812	0.10411229	-0.066813539	-0.88208302	0.076639919	0.081311913	-0.17278562	0.11980748	0.016809264	-0.84993794	0.094082801	-0.0020270564	-0.21136838	0.04058432	-0.019738934	-0.93470004	0.064067666	0.011939371	-0.3133082	0.43844584	-0.077480814	-0.69409757	0.41900924	0.13251868	-0.337426	0.42897232	0.045971219	-0.7074564	0.42178452	0.0001670393	-0.50032916	0.77252181	-0.13938794	-0.59075583	0.76311038	0.19899284	-0.44338812	0.81507928	-0.080120484	-0.47629879	0.81293449	0.16547704	-0.64528363	0.89798429	0.024106433	-0.52607781	1.2967641	-0.15167076	-0.50917804	1.290111	0.21022036	-0.59549727	1.3341741	0.03180895	-0.63766377	1.004728	-0.19997395	-0.5096476	0.97779825	0.31654685	-0.55493135	0.78079802	-0.25581127	-0.26968951	0.91171493	0.2824355
137	0.544	-0.031843039	0.13007721	-0.038786087	-0.75322117	0.034870041	0.070998342	-0.15627816	0.10260278	-0.065508583	-0.8813161	0.078090637	0.081675784	-0.16606379	0.11825455	0.018033143	-0.84901437	0.095193794	-0.0016597681	-0.20467994	0.039148021	-0.018811085	-0.93425688	0.066276819	0.012581015	-0.30553542	0.43750831	-0.076783278	-0.68893248	0.41818915	0.13267315	-0.3298282	0.42819812	0.046576877	-0.70190255	0.42090106	0.00027486801	-0.49277095	0.77128012	-0.13936185	-0.58410464	0.76239994	0.19903959	-0.43605144	0.81360279	-0.079939749	-0.4692951	0.81154189	0.1646752	-0.63690613	0.89579556	0.021805421	-0.51934974	1.2951825	-0.15188048	-0.50274971	1.2887237	0.21012067	-0.58881464	1.3327781	0.031574355	-0.63105932	1.0032555	-0.19954101	-0.50249403	0.97648145	0.31662396	-0.54998389	0.77899201	-0.25607409	-0.2623853	0.91117668	0.28197604
138	0.548	-0.02549436	0.12788973	-0.03693548	-0.75309763	0.034866964	0.071010932	-0.14980139	0.1007948	-0.0642277	-0.88042415	0.079634504	0.082124807	-0.15989652	0.11637942	0.019243877	-0.84799382	0.096407439	-0.0012394361	-0.19874601	0.037516403	-0.018045309	-0.93369419	0.068649864	0.013267463	-0.2976868	0.43659616	-0.076089825	-0.68360142	0.41739637	0.13289051	-0.32216229	0.42748886	0.047150583	-0.69624322	0.419994	0.00043739308	-0.48516406	0.77015952	-0.1393605	-0.57805563	0.76180336	0.19865191	-0.42863729	0.81225686	-0.079713917	-0.46237515	0.81018912	0.16435246	-0.62829765	0.89375573	0.02016468	-0.5125732	1.2936444	-0.15211368	-0.49621222	1.2874067	0.20999	-0.58209613	1.3314229	0.031307417	-0.6244033	1.0018205	-0.19911394	-0.49541527	0.97521804	0.31666246	-0.5449175	0.77725921	-0.25631032	-0.25520181	0.91056011	0.28155434
139	0.552	-0.019668005	0.12518213	-0.034989215	-0.75295841	0.03487319	0.071040447	-0.143884	0.09870884	-0.062962906	-0.87938073	0.081277342	0.082649275	-0.15428118	0.11420938	0.020432853	-0.8468511	0.097729265	-0.00075066255	-0.19354979	0.035696265	-0.01737322	-0.93299788	0.071214111	0.01403204	-0.28978513	0.43573258	-0.075405062	-0.67811212	0.41663474	0.13317428	-0.31445956	0.4268496	0.047682467	-0.69045372	0.41906502	0.00066659264	-0.47751079	0.76914511	-0.13937199	-0.57214429	0.76108353	0.19793234	-0.42113388	0.81104215	-0.079444828	-0.45565783	0.80888148	0.16473889	-0.61955466	0.89204973	0.019904316	-0.50574371	1.2921537	-0.15236621	-0.48962884	1.2861623	0.20982978	-0.57534242	1.3301085	0.031013411	-0.61771345	1.0004277	-0.1986982	-0.48842024	0.97401259	0.31665501	-0.53962886	0.77562472	-0.25648574	-0.24814803	0.90986705	0.28119407
140	0.556	-0.014362062	0.12199227	-0.033002996	-0.75279253	0.034892399	0.071085764	-0.13851369	0.096359417	-0.06170531	-0.87820015	0.083025932	0.083235843	-0.14918943	0.1117766	0.021601902	-0.84560211	0.099171306	-0.00015172144	-0.18901966	0.033690782	-0.016703306	-0.93223472	0.073970358	0.015007631	-0.28184716	0.4349374	-0.074734345	-0.67249783	0.41589516	0.1335155	-0.30674173	0.42627475	0.048166211	-0.6845108	0.41811523	0.00096614076	-0.4698278	0.76822103	-0.13938656	-0.56609767	0.76013409	0.19714165	-0.41353897	0.80993701	-0.07915858	-0.44925935	0.8076111	0.16594702	-0.6108635	0.89063854	0.020710476	-0.49885589	1.2907123	-0.15263705	-0.48302339	1.2849842	0.20963141	-0.56855565	1.3288302	0.030697405	-0.6110036	0.99908376	-0.19830602	-0.48151015	0.9728651	0.31658605	-0.53407135	0.77409241	-0.25657204	-0.24119104	0.90909148	0.28088386
141	0.56	-0.0095799005	0.11837072	-0.031045607	-0.75259128	0.034928547	0.071145701	-0.13367424	0.093755297	-0.060451488	-0.87693014	0.084888097	0.08388402	-0.14458136	0.10911427	0.022759155	-0.84431138	0.10074447	0.00059395281	-0.18506907	0.031504511	-0.01597066	-0.93144153	0.076894009	0.016248456	-0.2738814	0.43422164	-0.074073649	-0.66678226	0.41516769	0.1339029	-0.29902319	0.42575151	0.048601252	-0.67839172	0.41714733	0.001328896	-0.46211794	0.76737634	-0.13939877	-0.55989757	0.75905152	0.1966497	-0.40586224	0.80892192	-0.078876106	-0.4432731	0.80634509	0.16774144	-0.60260024	0.88942573	0.021619402	-0.49190873	1.2893214	-0.15292908	-0.47638387	1.2838639	0.20938825	-0.56173723	1.3275847	0.030358838	-0.60426025	0.99779022	-0.19794665	-0.47468425	0.97177431	0.3164521	-0.52830912	0.77262603	-0.25657208	-0.23429161	0.90823419	0.2805978
142	0.564	-0.0053178072	0.11436951	-0.02916987	-0.75235243	0.034984613	0.071219196	-0.12934667	0.090908542	-0.059208636	-0.87560992	0.086864599	0.084599154	-0.14043445	0.10625598	0.023910157	-0.84301632	0.10244207	0.0014648142	-0.18164788	0.029150143	-0.015159871	-0.93054256	0.079975938	0.01759912	-0.26589925	0.43357875	-0.073416932	-0.66095786	0.41445135	0.13433402	-0.29131452	0.4252686	0.048993899	-0.67208265	0.41616254	0.0017461869	-0.45435569	0.76660138	-0.13940051	-0.55342146	0.75798006	0.19664996	-0.39811817	0.80798993	-0.078605306	-0.43771082	0.80503536	0.16944571	-0.5950624	0.88835043	0.021869524	-0.48490704	1.2879831	-0.15324544	-0.46969749	1.2827991	0.20909957	-0.55488482	1.326369	0.029990674	-0.59741982	0.99654214	-0.19761429	-0.46793735	0.97073609	0.3162612	-0.52249098	0.77117816	-0.25653275	-0.22744844	0.90731011	0.28032678
143	0.568	-0.0015604067	0.11004374	-0.027403294	-0.75207936	0.035058242	0.071306271	-0.12550768	0.087840179	-0.057992775	-0.87423076	0.088949577	0.08538369	-0.13675446	0.10324104	0.025059157	-0.84164388	0.10424287	0.0023893644	-0.17873801	0.026650472	-0.014281354	-0.92942491	0.083241325	0.018850383	-0.25791874	0.43298456	-0.072769197	-0.65500969	0.41375075	0.13481173	-0.28362498	0.42481242	0.049353856	-0.66560421	0.41515538	0.0022136436	-0.44650147	0.76588461	-0.13937867	-0.54637271	0.75697253	0.19707442	-0.39031317	0.8071432	-0.078342019	-0.43245519	0.80367074	0.17035339	-0.58820446	0.88736011	0.021294169	-0.47786347	1.2867047	-0.15359111	-0.46296667	1.2817908	0.20876598	-0.54799833	1.3251781	0.029586098	-0.59041494	0.99533912	-0.19729374	-0.46126028	0.9697452	0.31601712	-0.51675405	0.76973345	-0.25652148	-0.22068785	0.90633151	0.28007566
144	0.572	0.001720018	0.10545938	-0.025751089	-0.75177609	0.035141272	0.071409845	-0.12213127	0.084578809	-0.056818024	-0.87275089	0.091136444	0.086236371	-0.1335559	0.10011442	0.026210575	-0.84007043	0.10613095	0.0033191686	-0.17631989	0.024034415	-0.013351687	-0.9280278	0.086724493	0.019927465	-0.24995885	0.43240578	-0.072141271	-0.64892767	0.41306805	0.13533712	-0.27596459	0.42435837	0.049689282	-0.65901679	0.41411704	0.0027289191	-0.43852303	0.76521078	-0.13932516	-0.53868302	0.75601416	0.1977185	-0.38241809	0.80638554	-0.07807236	-0.42732638	0.80231758	0.17034525	-0.58169091	0.88638396	0.020151183	-0.47079815	1.2854988	-0.15397515	-0.45620118	1.2808384	0.20838852	-0.54108442	1.3240094	0.029143077	-0.58327655	0.99419556	-0.1969813	-0.45465115	0.96880201	0.31571872	-0.511126	0.76831273	-0.25657804	-0.21403052	0.90529775	0.27984664
